<svg version="1.0" xmlns="http://www.w3.org/2000/svg"
 width="344.000000pt" height="344.000000pt" viewBox="0 0 344.000000 344.000000"
 preserveAspectRatio="xMidYMid meet">
<g transform="translate(0.000000,344.000000) scale(0.100000,-0.100000)"
fill="currentColor" stroke="none">
<path d="M2072 2844 c-29 -14 -61 -39 -73 -55 l-20 -29 -771 0 c-692 0 -773
-2 -804 -16 -42 -20 -64 -59 -64 -115 0 -33 6 -47 34 -75 l34 -34 781 0 782 0
31 -36 c61 -69 152 -96 240 -70 106 31 168 113 168 222 -1 179 -178 288 -338
208z"/>
<path d="M2625 2641 l0 -121 192 0 c105 0 203 4 217 10 35 13 66 66 66 113 0
29 -8 46 -34 75 l-34 37 -204 3 -203 3 0 -120z"/>
<path d="M920 1924 c-25 -14 -55 -39 -68 -55 l-23 -29 -202 0 c-184 0 -205 -2
-235 -20 -51 -32 -68 -101 -37 -160 28 -54 53 -60 274 -60 l200 0 20 -28 c11
-15 43 -41 71 -56 46 -25 60 -28 125 -24 62 3 80 8 117 34 55 38 84 82 99 148
22 101 -31 210 -125 255 -63 31 -157 29 -216 -5z"/>
<path d="M1475 1809 c4 -17 7 -57 7 -89 0 -32 -3 -72 -7 -89 l-7 -31 772 0
c846 0 813 -2 845 60 19 37 19 83 0 120 -32 62 1 60 -845 60 l-772 0 7 -31z"/>
<path d="M1665 1031 c-50 -13 -93 -39 -122 -76 l-28 -35 -553 0 -554 0 -34
-34 c-28 -28 -34 -42 -34 -75 0 -56 22 -95 64 -115 30 -14 95 -16 573 -16
l539 0 34 -36 c88 -94 239 -99 332 -12 88 83 93 244 10 331 -54 57 -154 87
-227 68z"/>
<path d="M2165 800 l0 -121 433 3 434 3 34 37 c26 29 34 46 34 75 0 47 -31
100 -66 113 -15 6 -197 10 -447 10 l-422 0 0 -120z"/>
</g>
</svg>
